<mxfile host="app.diagrams.net" modified="2022-06-07T12:07:32.716Z" agent="5.0 (Macintosh; Intel Mac OS X 10_15_7) AppleWebKit/605.1.15 (KHTML, like Gecko) Version/15.5 Safari/605.1.15" etag="LPgDrR0-jy-jj3-xpqGk" version="19.0.1" type="github">
  <diagram id="fzsr9eDfYjwOltoodX4_" name="Page-1">
    <mxGraphModel dx="770" dy="535" grid="1" gridSize="10" guides="1" tooltips="1" connect="1" arrows="1" fold="1" page="1" pageScale="1" pageWidth="827" pageHeight="1169" math="0" shadow="0">
      <root>
        <mxCell id="0" />
        <mxCell id="1" parent="0" />
        <mxCell id="fwBo3leHbbfgrVWGa_Rg-1" value="Provider" style="rounded=1;whiteSpace=wrap;html=1;sketch=1;fontFamily=Comic Sans MS;fontStyle=1;fontSize=18;glass=0;shadow=1;" parent="1" vertex="1">
          <mxGeometry x="470" y="100" width="120" height="60" as="geometry" />
        </mxCell>
        <mxCell id="fwBo3leHbbfgrVWGa_Rg-2" value="Vmware" style="rounded=0;whiteSpace=wrap;html=1;sketch=1;fontFamily=Comic Sans MS;" parent="1" vertex="1">
          <mxGeometry x="470" y="190" width="120" height="60" as="geometry" />
        </mxCell>
        <mxCell id="fwBo3leHbbfgrVWGa_Rg-3" value="Virtualbox" style="rounded=0;whiteSpace=wrap;html=1;sketch=1;fontFamily=Comic Sans MS;" parent="1" vertex="1">
          <mxGeometry x="470" y="280" width="120" height="60" as="geometry" />
        </mxCell>
        <mxCell id="fwBo3leHbbfgrVWGa_Rg-4" value="Qemu-kvm" style="rounded=0;whiteSpace=wrap;html=1;sketch=1;fontFamily=Comic Sans MS;" parent="1" vertex="1">
          <mxGeometry x="470" y="370" width="120" height="60" as="geometry" />
        </mxCell>
        <mxCell id="fwBo3leHbbfgrVWGa_Rg-5" value="Parallels" style="rounded=0;whiteSpace=wrap;html=1;sketch=1;fontFamily=Comic Sans MS;" parent="1" vertex="1">
          <mxGeometry x="470" y="460" width="120" height="60" as="geometry" />
        </mxCell>
        <mxCell id="fwBo3leHbbfgrVWGa_Rg-6" value="Docker" style="rounded=0;whiteSpace=wrap;html=1;sketch=1;fontFamily=Comic Sans MS;" parent="1" vertex="1">
          <mxGeometry x="470" y="554.5" width="120" height="60" as="geometry" />
        </mxCell>
        <mxCell id="fwBo3leHbbfgrVWGa_Rg-8" value="Vagrant" style="rounded=1;whiteSpace=wrap;html=1;sketch=1;fontFamily=Comic Sans MS;fontSize=18;shadow=1;fontStyle=1" parent="1" vertex="1">
          <mxGeometry x="90" y="100" width="120" height="60" as="geometry" />
        </mxCell>
        <mxCell id="fwBo3leHbbfgrVWGa_Rg-9" value="Plugin" style="rounded=1;whiteSpace=wrap;html=1;sketch=1;fontFamily=Comic Sans MS;fontStyle=1;fontSize=18;shadow=1;" parent="1" vertex="1">
          <mxGeometry x="280" y="100" width="120" height="60" as="geometry" />
        </mxCell>
        <mxCell id="fwBo3leHbbfgrVWGa_Rg-10" value="VM" style="rounded=0;whiteSpace=wrap;html=1;sketch=1;fontFamily=Comic Sans MS;" parent="1" vertex="1">
          <mxGeometry x="670" y="270" width="120" height="60" as="geometry" />
        </mxCell>
        <mxCell id="fwBo3leHbbfgrVWGa_Rg-11" value="Container" style="rounded=0;whiteSpace=wrap;html=1;sketch=1;fontFamily=Comic Sans MS;" parent="1" vertex="1">
          <mxGeometry x="670" y="390" width="120" height="60" as="geometry" />
        </mxCell>
        <mxCell id="fwBo3leHbbfgrVWGa_Rg-12" value="Vagrantfile" style="rounded=0;whiteSpace=wrap;html=1;sketch=1;fontFamily=Comic Sans MS;" parent="1" vertex="1">
          <mxGeometry x="90" y="280" width="120" height="60" as="geometry" />
        </mxCell>
        <mxCell id="fwBo3leHbbfgrVWGa_Rg-13" value="Boxes (Image)" style="rounded=0;whiteSpace=wrap;html=1;sketch=1;fontFamily=Comic Sans MS;" parent="1" vertex="1">
          <mxGeometry x="90" y="380" width="120" height="60" as="geometry" />
        </mxCell>
        <mxCell id="fwBo3leHbbfgrVWGa_Rg-14" value="vagrant-vmware-desktop&lt;br&gt;vagrant-vmware-utility" style="rounded=0;whiteSpace=wrap;html=1;sketch=1;fontFamily=Comic Sans MS;" parent="1" vertex="1">
          <mxGeometry x="280" y="190" width="120" height="60" as="geometry" />
        </mxCell>
        <mxCell id="fwBo3leHbbfgrVWGa_Rg-15" value="virtualbox" style="rounded=0;whiteSpace=wrap;html=1;sketch=1;fontFamily=Comic Sans MS;" parent="1" vertex="1">
          <mxGeometry x="280" y="280" width="120" height="60" as="geometry" />
        </mxCell>
        <mxCell id="fwBo3leHbbfgrVWGa_Rg-16" value="vagrant-qemu" style="rounded=0;whiteSpace=wrap;html=1;sketch=1;fontFamily=Comic Sans MS;" parent="1" vertex="1">
          <mxGeometry x="280" y="370" width="120" height="60" as="geometry" />
        </mxCell>
        <mxCell id="fwBo3leHbbfgrVWGa_Rg-17" value="vagrant-&lt;span style=&quot;font-size: 11px;&quot;&gt;parallels&lt;/span&gt;" style="rounded=0;whiteSpace=wrap;html=1;sketch=1;fontFamily=Comic Sans MS;" parent="1" vertex="1">
          <mxGeometry x="280" y="460" width="120" height="60" as="geometry" />
        </mxCell>
        <mxCell id="fwBo3leHbbfgrVWGa_Rg-18" value="docker" style="rounded=0;whiteSpace=wrap;html=1;sketch=1;fontFamily=Comic Sans MS;" parent="1" vertex="1">
          <mxGeometry x="280" y="555" width="120" height="60" as="geometry" />
        </mxCell>
        <mxCell id="fwBo3leHbbfgrVWGa_Rg-19" value="cli" style="rounded=0;whiteSpace=wrap;html=1;sketch=1;fontFamily=Comic Sans MS;" parent="1" vertex="1">
          <mxGeometry x="90" y="190" width="120" height="60" as="geometry" />
        </mxCell>
        <mxCell id="fwBo3leHbbfgrVWGa_Rg-20" value="" style="endArrow=classic;html=1;sketch=1;fontFamily=Comic Sans MS;fontSize=18;curved=1;exitX=1;exitY=0.5;exitDx=0;exitDy=0;entryX=0;entryY=0.5;entryDx=0;entryDy=0;strokeColor=#0000CC;" parent="1" source="fwBo3leHbbfgrVWGa_Rg-19" target="fwBo3leHbbfgrVWGa_Rg-14" edge="1">
          <mxGeometry width="50" height="50" relative="1" as="geometry">
            <mxPoint x="220" y="260" as="sourcePoint" />
            <mxPoint x="270" y="210" as="targetPoint" />
          </mxGeometry>
        </mxCell>
        <mxCell id="fwBo3leHbbfgrVWGa_Rg-21" value="" style="endArrow=classic;html=1;sketch=1;fontFamily=Comic Sans MS;fontSize=18;curved=1;exitX=1;exitY=0.5;exitDx=0;exitDy=0;strokeColor=#0000CC;" parent="1" source="fwBo3leHbbfgrVWGa_Rg-12" edge="1">
          <mxGeometry width="50" height="50" relative="1" as="geometry">
            <mxPoint x="220" y="330" as="sourcePoint" />
            <mxPoint x="280" y="220" as="targetPoint" />
          </mxGeometry>
        </mxCell>
        <mxCell id="fwBo3leHbbfgrVWGa_Rg-22" value="" style="endArrow=classic;html=1;sketch=1;fontFamily=Comic Sans MS;fontSize=18;curved=1;exitX=1;exitY=0.5;exitDx=0;exitDy=0;strokeColor=#0000CC;" parent="1" source="fwBo3leHbbfgrVWGa_Rg-13" edge="1">
          <mxGeometry width="50" height="50" relative="1" as="geometry">
            <mxPoint x="220" y="410" as="sourcePoint" />
            <mxPoint x="280" y="220" as="targetPoint" />
          </mxGeometry>
        </mxCell>
        <mxCell id="fwBo3leHbbfgrVWGa_Rg-23" value="" style="endArrow=classic;html=1;sketch=1;fontFamily=Comic Sans MS;fontSize=18;curved=1;exitX=1;exitY=0.5;exitDx=0;exitDy=0;entryX=0;entryY=0.5;entryDx=0;entryDy=0;strokeColor=#FF0000;" parent="1" source="fwBo3leHbbfgrVWGa_Rg-19" target="fwBo3leHbbfgrVWGa_Rg-18" edge="1">
          <mxGeometry width="50" height="50" relative="1" as="geometry">
            <mxPoint x="230" y="440" as="sourcePoint" />
            <mxPoint x="280" y="390" as="targetPoint" />
          </mxGeometry>
        </mxCell>
        <mxCell id="fwBo3leHbbfgrVWGa_Rg-24" value="" style="endArrow=classic;html=1;sketch=1;fontFamily=Comic Sans MS;fontSize=18;curved=1;strokeColor=#FF0000;" parent="1" edge="1">
          <mxGeometry width="50" height="50" relative="1" as="geometry">
            <mxPoint x="210" y="310" as="sourcePoint" />
            <mxPoint x="280" y="590" as="targetPoint" />
          </mxGeometry>
        </mxCell>
        <mxCell id="fwBo3leHbbfgrVWGa_Rg-25" value="" style="endArrow=classic;html=1;sketch=1;fontFamily=Comic Sans MS;fontSize=18;curved=1;exitX=1;exitY=0.5;exitDx=0;exitDy=0;strokeColor=#FF0000;" parent="1" source="fwBo3leHbbfgrVWGa_Rg-13" edge="1">
          <mxGeometry width="50" height="50" relative="1" as="geometry">
            <mxPoint x="190" y="610" as="sourcePoint" />
            <mxPoint x="280" y="580" as="targetPoint" />
          </mxGeometry>
        </mxCell>
        <mxCell id="fwBo3leHbbfgrVWGa_Rg-26" value="" style="endArrow=classic;html=1;sketch=1;fontFamily=Comic Sans MS;fontSize=18;fontColor=#00CC00;strokeColor=#FF0000;curved=1;exitX=1;exitY=0.5;exitDx=0;exitDy=0;entryX=0;entryY=0.5;entryDx=0;entryDy=0;" parent="1" source="fwBo3leHbbfgrVWGa_Rg-18" target="fwBo3leHbbfgrVWGa_Rg-6" edge="1">
          <mxGeometry width="50" height="50" relative="1" as="geometry">
            <mxPoint x="410" y="630" as="sourcePoint" />
            <mxPoint x="460" y="580" as="targetPoint" />
          </mxGeometry>
        </mxCell>
        <mxCell id="fwBo3leHbbfgrVWGa_Rg-27" value="" style="endArrow=classic;html=1;sketch=1;fontFamily=Comic Sans MS;fontSize=18;fontColor=#00CC00;strokeColor=#0000CC;curved=1;exitX=1;exitY=0.5;exitDx=0;exitDy=0;entryX=0;entryY=0.5;entryDx=0;entryDy=0;" parent="1" source="fwBo3leHbbfgrVWGa_Rg-14" target="fwBo3leHbbfgrVWGa_Rg-2" edge="1">
          <mxGeometry width="50" height="50" relative="1" as="geometry">
            <mxPoint x="420" y="250" as="sourcePoint" />
            <mxPoint x="470" y="200" as="targetPoint" />
          </mxGeometry>
        </mxCell>
        <mxCell id="fwBo3leHbbfgrVWGa_Rg-28" value="" style="endArrow=classic;html=1;sketch=1;fontFamily=Comic Sans MS;fontSize=18;fontColor=#00CC00;strokeColor=#0000CC;curved=1;exitX=1;exitY=0.5;exitDx=0;exitDy=0;entryX=0;entryY=0.5;entryDx=0;entryDy=0;" parent="1" source="fwBo3leHbbfgrVWGa_Rg-2" target="fwBo3leHbbfgrVWGa_Rg-10" edge="1">
          <mxGeometry width="50" height="50" relative="1" as="geometry">
            <mxPoint x="640" y="180" as="sourcePoint" />
            <mxPoint x="690" y="130" as="targetPoint" />
          </mxGeometry>
        </mxCell>
        <mxCell id="fwBo3leHbbfgrVWGa_Rg-29" value="" style="endArrow=classic;html=1;sketch=1;fontFamily=Comic Sans MS;fontSize=18;fontColor=#00CC00;strokeColor=#FF0000;curved=1;exitX=1;exitY=0.5;exitDx=0;exitDy=0;entryX=0;entryY=0.5;entryDx=0;entryDy=0;" parent="1" source="fwBo3leHbbfgrVWGa_Rg-6" target="fwBo3leHbbfgrVWGa_Rg-11" edge="1">
          <mxGeometry width="50" height="50" relative="1" as="geometry">
            <mxPoint x="640" y="580" as="sourcePoint" />
            <mxPoint x="690" y="530" as="targetPoint" />
          </mxGeometry>
        </mxCell>
      </root>
    </mxGraphModel>
  </diagram>
</mxfile>
